
<svg width="153px" height="31px" viewBox="0 0 153 31" version="1.1" xmlns="http://www.w3.org/2000/svg" xmlns:xlink="http://www.w3.org/1999/xlink">
    <!-- Generator: Sketch 49.2 (51160) - http://www.bohemiancoding.com/sketch -->
    <desc>Created with Sketch.</desc>
    <defs>
        <polygon id="path-1" points="0.0169547292 0.431416667 125.767392 0.431416667 125.767392 30.539209 0.0169547292 30.539209"></polygon>
    </defs>
    <g id="Одежда" stroke="none" stroke-width="1" fill="none" fill-rule="evenodd">
        <g transform="translate(-160.000000, -71.000000)" id="logo_keyword">
            <g transform="translate(160.000000, 71.000000)">
                <g id="Group-4" transform="translate(27.000000, 0.000000)">
                    <mask id="mask-2" fill="white">
                        <use xlink:href="#path-1"></use>
                    </mask>
                    <g id="Clip-2"></g>
                    <path d="M15.1844766,30.538875 C11.1841734,30.562125 7.58697187,29.3725 4.60274062,26.671625 C1.29090937,23.67625 -0.01693125,19.7792917 0.0176203125,15.3617917 C0.04449375,11.6960417 1.00809844,8.36225 3.42030937,5.54641667 C5.58426094,3.02120833 8.33686875,1.51770833 11.5514437,0.835708333 C15.5862984,-0.0219583333 19.4714297,0.458541667 23.0468766,2.52391667 C27.5539359,5.126625 29.7805922,9.207 30.055725,14.4007917 C30.2975859,18.968125 29.2175297,23.0846667 25.8711469,26.3667917 C22.9035516,29.2807917 19.2615609,30.4949583 15.1844766,30.538875 Z M15.2804531,7.81716667 C11.8918406,7.901125 9.51418125,9.745625 8.60560312,12.77975 C8.04637969,14.6500833 8.08221094,16.5062083 8.64015469,18.3778333 C9.44891719,21.0942083 11.2417594,22.7630417 13.9713328,23.1970417 C16.7367375,23.6362083 19.1131172,22.7087917 20.6244281,20.2520417 C22.3430484,17.456875 22.3750406,14.4705417 21.0044953,11.512625 C19.8297422,8.97966667 17.7374531,7.846875 15.2804531,7.81716667 Z" id="Fill-1" fill="#000105" mask="url(#mask-2)"></path>
                    <path d="M115.193334,12.7862083 C115.193334,11.9505 115.29315,11.1199583 115.17158,10.323 C114.957872,8.91766667 113.972513,8.12845833 112.71458,7.66345833 C110.553188,6.86391667 108.317573,6.82 106.057645,7.00858333 C103.970475,7.18295833 101.951128,7.6105 100.004723,8.64383333 C99.6438516,6.62883333 99.2970563,4.69520833 98.9464219,2.739625 C100.658644,1.88066667 102.377264,1.40145833 104.144513,1.07983333 C107.924709,0.392666667 111.712584,0.284166667 115.45695,1.24129167 C119.407345,2.251375 122.179148,4.55441667 122.945681,8.79366667 C123.133795,9.8425 123.149152,10.931375 123.158109,12.000875 C123.184983,15.1409167 123.168347,18.2796667 123.170906,21.4197083 C123.170906,21.8330417 123.177305,22.246375 123.202898,22.6584167 C123.342384,24.8594167 123.536897,25.075125 125.767392,25.408375 L125.767392,29.9395417 C123.56633,30.500125 121.305122,30.794625 119.066948,29.7302917 C117.810295,29.1335417 117.229317,28.027875 116.952905,26.722 C116.896598,26.4610833 116.886361,26.1898333 116.840292,25.8010417 C114.138872,29.7160833 110.272936,30.678375 106.021814,30.4368333 C101.261377,30.166875 97.6053094,26.942875 96.9321938,23.1402083 C95.8367813,16.9505417 98.933625,12.326375 105.113236,11.3937917 C109.021402,10.8035 110.141128,11.0527917 115.193334,12.7862083 Z M115.038492,18.193125 C113.740889,17.2954167 112.267969,16.8226667 110.725945,16.6250417 C109.125056,16.4196667 107.543363,16.5281667 106.184334,17.5860417 C104.939198,18.557375 104.466994,20.099625 104.923842,21.6896667 C105.274477,22.912875 106.509375,23.87 107.966939,24.0107917 C109.370756,24.145125 110.732344,23.9307083 112.028667,23.374 C114.355139,22.37425 115.266277,20.7958333 115.038492,18.193125 Z" id="Fill-3" fill="#000105" mask="url(#mask-2)"></path>
                </g>
                <path d="M105.653684,18.2818892 C104.177205,18.3735495 102.779731,18.459972 101.24497,18.5555606 L101.24497,29.9751208 L93,29.9751208 L93,1.06939992 L101.12452,1.06939992 L101.12452,11.7543685 C102.989546,11.7465119 104.70822,11.9245948 106.389333,11.3445162 C108.534114,10.6059963 110.035201,9.14597914 110.640039,6.96315528 C111.169758,5.04876507 111.43138,3.05973721 111.831583,1 L119.394005,1 C119.557195,6.95791755 118.386373,12.2061227 112.753735,15.4770849 C112.975207,15.8934844 113.150053,16.2575067 113.355983,16.6045063 C115.669134,20.5105432 117.993941,24.4087235 120.295435,28.3226171 C120.572598,28.7953222 120.728017,29.3426649 121,30 L112.323743,30 C110.127157,26.1411026 107.88783,22.2075676 105.653684,18.2818892" id="Fill-5" fill="#000105"></path>
                <g id="Group-10" transform="translate(0.000000, 1.000000)" fill="#000105">
                    <path d="M79.0265999,0 L87,0 L87,28 L78.9481646,28 L78.9481646,19.0215399 C77.4668944,19.3452247 76.1103491,19.7498307 74.7229441,19.9281102 C71.0673439,20.3972003 67.586616,19.9710996 64.6047881,17.5813953 C62.2993041,15.7328517 61.1047728,13.2306164 60.5402957,10.4426281 C59.8459502,7.01232784 60.2754157,3.53398058 60.1571198,0.00758636261 L68.4712635,0.00758636261 C68.4712635,0.413456762 68.467406,0.837028675 68.4725493,1.25933619 C68.5008375,3.52386543 68.4404037,5.79345225 68.5818444,8.05039512 C68.7695749,11.0419508 70.9811937,12.9979679 74.0157404,13.0396929 C75.8904731,13.0649808 77.0772894,12.7235945 79.0265999,11.5527659 L79.0265999,0" id="Fill-6"></path>
                    <polyline id="Fill-8" points="16.1375351 28 8.26874644 28 8.26874644 7.1576462 0 7.1576462 0 0 24.3088235 0 24.3088235 7.07500908 16.1375351 7.07500908 16.1375351 28"></polyline>
                </g>
            </g>
        </g>
    </g>
</svg>